# xmcd CD database file
#
# Track frame offsets:
#	150
#	41647
#	58723
#	111792
#	173725
#
# Disc length: 2821 seconds
#
# Revision: 0
# Processed by: cddbd v1.5.2PL0 Copyright (c) Steve Scherf et al.
# Submitted via: CDex 1.51
#
DISCID=3c0b0305
DTITLE=Charles Mingus - Reincarnation Of A Lovebird
DYEAR=1960
DGENRE=Jazz
TTITLE0=Reincarnation of a Lovebird
TTITLE1=Wrap Your Troubles In Dreams
TTITLE2=R&R
TTITLE3=Body And Soul
TTITLE4=Bugs
EXTD=YEAR: 1960
EXTT0=
EXTT1=
EXTT2=
EXTT3=
EXTT4=
PLAYORDER=
